<svg id="InstagramLogo" xmlns="http://www.w3.org/2000/svg" width="44.991" height="45" viewBox="0 0 44.991 45">
  <path id="Path_1" data-name="Path 1" d="M45.326,13.23A16.443,16.443,0,0,0,44.28,7.771,11.527,11.527,0,0,0,37.7,1.187,16.486,16.486,0,0,0,32.237.141C29.828.027,29.063,0,22.954,0s-6.875.027-9.275.132A16.45,16.45,0,0,0,8.218,1.178,10.98,10.98,0,0,0,4.23,3.78,11.079,11.079,0,0,0,1.635,7.762,16.487,16.487,0,0,0,.589,13.221C.475,15.631.449,16.395.449,22.5s.026,6.875.131,9.274a16.442,16.442,0,0,0,1.046,5.459A11.526,11.526,0,0,0,8.21,43.822a16.488,16.488,0,0,0,5.459,1.046c2.4.106,3.164.132,9.274.132s6.874-.026,9.274-.132a16.439,16.439,0,0,0,5.459-1.046,11.511,11.511,0,0,0,6.585-6.584,16.5,16.5,0,0,0,1.046-5.459c.106-2.4.132-3.164.132-9.274s-.009-6.874-.115-9.274ZM41.273,31.6a12.334,12.334,0,0,1-.773,4.176,7.465,7.465,0,0,1-4.273,4.273,12.379,12.379,0,0,1-4.176.773c-2.374.106-3.086.132-9.09.132s-6.725-.026-9.09-.132A12.328,12.328,0,0,1,9.7,40.052a6.925,6.925,0,0,1-2.585-1.679,7,7,0,0,1-1.679-2.585,12.379,12.379,0,0,1-.773-4.176c-.106-2.374-.132-3.086-.132-9.09s.026-6.725.132-9.09a12.328,12.328,0,0,1,.773-4.176A6.84,6.84,0,0,1,7.121,6.672,6.985,6.985,0,0,1,9.706,4.993a12.386,12.386,0,0,1,4.176-.773c2.374-.106,3.086-.132,9.09-.132s6.725.027,9.09.132a12.334,12.334,0,0,1,4.176.773,6.92,6.92,0,0,1,2.585,1.679A6.994,6.994,0,0,1,40.5,9.257a12.385,12.385,0,0,1,.773,4.176c.106,2.374.132,3.086.132,9.09S41.379,29.23,41.273,31.6Zm0,0" transform="translate(-0.449)"/>
  <path id="Path_2" data-name="Path 2" d="M134.7,124.5a9.75,9.75,0,1,0,9.753,9.75A9.751,9.751,0,0,0,134.7,124.5Zm0,16.075a6.325,6.325,0,1,1,6.327-6.325,6.326,6.326,0,0,1-6.327,6.325Zm0,0" transform="translate(-112.196 -111.745)"/>
  <path id="Path_3" data-name="Path 3" d="M372.752,93.753A5.152,5.152,0,1,1,367.6,88.6a5.151,5.151,0,0,1,5.148,5.153Zm0,0" transform="translate(-334.569 -81.777)"/>
</svg>
