<svg xmlns="http://www.w3.org/2000/svg" width="64.271" height="45" viewBox="0 0 64.271 45">
  <path id="youtube" d="M62.947.959a8.052,8.052,0,0,0-5.665-5.665C52.253-6.082,32.135-6.082,32.135-6.082s-20.117,0-25.147,1.324A8.215,8.215,0,0,0,1.324.959C0,5.988,0,16.418,0,16.418S0,26.9,1.324,31.877a8.053,8.053,0,0,0,5.665,5.665c5.082,1.377,25.147,1.377,25.147,1.377s20.117,0,25.147-1.324a8.052,8.052,0,0,0,5.665-5.665c1.323-5.029,1.323-15.459,1.323-15.459S64.324,5.988,62.947.959ZM25.73,26.053V6.783l16.729,9.635Zm0,0" transform="translate(-0.001 6.082)"/>
</svg>
